<svg xmlns="http://www.w3.org/2000/svg" viewBox="0 0 160 160">
<rect width="160" height="160" rx="34" fill="#ffffff"/>
<g transform="translate(20,20)">
<defs>
<linearGradient id="djshield" x1="20" y1="20" x2="100" y2="100" gradientUnits="userSpaceOnUse">
<stop offset="0" stop-color="#4fd8a4"/><stop offset="1" stop-color="#14a181"/>
</linearGradient>
</defs>
<g fill="url(#djshield)">
<path d="M60 8 L75 22 Q85 32 85 50 Q85 70 60 85 Q35 70 35 50 Q35 32 45 22 Z"/>
<path d="M60 8 L75 22 Q85 32 85 50 Q85 70 60 85 Q35 70 35 50 Q35 32 45 22 Z" transform="rotate(120 60 60)"/>
<path d="M60 8 L75 22 Q85 32 85 50 Q85 70 60 85 Q35 70 35 50 Q35 32 45 22 Z" transform="rotate(240 60 60)"/>
</g>
</g>
</svg>
