<svg xmlns="http://www.w3.org/2000/svg" viewBox="0 0 760 160">
<defs>
<linearGradient id="djword" x1="0" y1="0" x2="1" y2="0"><stop offset="0" stop-color="#2563eb"/><stop offset="1" stop-color="#0ea5e9"/></linearGradient>
</defs>
<g transform="translate(14,17)">
<defs>
<linearGradient id="djknot" x1="30" y1="14" x2="94" y2="106" gradientUnits="userSpaceOnUse">
<stop offset="0" stop-color="#60a5fa"/><stop offset="1" stop-color="#2563eb"/>
</linearGradient>
</defs>
<g fill="none" stroke-linejoin="miter" stroke-linecap="butt">
<path d="M33 83 L60 106 C81 91 91 74 92 49 L91 34" stroke="url(#djknot)" stroke-width="10"/>
<path d="M33 83 L60 106 C81 91 91 74 92 49 L91 34" transform="rotate(120 60 62)" stroke="#ffffff" stroke-width="14"/>
<path d="M33 83 L60 106 C81 91 91 74 92 49 L91 34" transform="rotate(120 60 62)" stroke="url(#djknot)" stroke-width="10"/>
<path d="M33 83 L60 106 C81 91 91 74 92 49 L91 34" transform="rotate(240 60 62)" stroke="#ffffff" stroke-width="14"/>
<path d="M33 83 L60 106 C81 91 91 74 92 49 L91 34" transform="rotate(240 60 62)" stroke="url(#djknot)" stroke-width="10"/>
<path d="M33 83 L60 106 C71 98 79 90 84 80" stroke="#ffffff" stroke-width="14"/>
<path d="M33 83 L60 106 C71 98 79 90 84 80" stroke="url(#djknot)" stroke-width="10"/>
</g>
</g>
<text x="168" y="88" font-family="Sora, Montserrat, 'Segoe UI', Arial, sans-serif" font-size="52" font-weight="800" letter-spacing="2" fill="url(#djword)">DIGITALJEEVA360</text>
<text x="172" y="126" font-family="Sora, Montserrat, 'Segoe UI', Arial, sans-serif" font-size="21" font-weight="600" letter-spacing="12" fill="#3b82f6">DIGITAL RISE</text>
</svg>
